<svg xmlns="http://www.w3.org/2000/svg" viewBox="0 0 880 480" fill="none" role="img" aria-labelledby="t1">
  <title id="t1">Ejemplo visual - dashboard / resumen</title>
  <rect width="880" height="480" rx="16" fill="#f8fafc"/>
  <rect x="24" y="24" width="832" height="48" rx="10" fill="#124c48"/>
  <rect x="40" y="38" width="100" height="16" rx="4" fill="#fff" opacity="0.2"/>
  <rect x="24" y="84" width="832" height="372" rx="12" fill="#fff" stroke="#e2e8f0"/>
  <text x="48" y="118" fill="#334155" font-family="system-ui,sans-serif" font-size="13" font-weight="600">Resumen - KPIs del periodo</text>
  <g transform="translate(48 136)">
    <rect width="180" height="76" rx="10" fill="#ecfdf5" stroke="#5eead4"/>
    <rect x="196" width="180" height="76" rx="10" fill="#fff" stroke="#e2e8f0"/>
    <rect x="392" width="180" height="76" rx="10" fill="#fff" stroke="#e2e8f0"/>
    <rect x="588" width="180" height="76" rx="10" fill="#fff" stroke="#e2e8f0"/>
    <rect x="12" y="14" width="80" height="8" rx="2" fill="#94a3b8"/>
    <rect x="12" y="32" width="100" height="14" rx="2" fill="#0d9488"/>
  </g>
  <rect x="48" y="240" width="780" height="180" rx="10" fill="#f1f5f9" stroke="#e2e8f0"/>
  <rect x="64" y="258" width="200" height="140" rx="6" fill="#fff" stroke="#e2e8f0"/>
  <path d="M80 340 L120 300 L160 320 L200 280 L240 310" stroke="#0d9488" stroke-width="3" fill="none" stroke-linecap="round"/>
  <rect x="288" y="258" width="524" height="140" rx="6" fill="#fff" stroke="#e2e8f0"/>
  <rect x="304" y="276" width="200" height="10" rx="2" fill="#cbd5e1"/>
  <rect x="304" y="296" width="480" height="8" rx="2" fill="#e2e8f0"/>
  <rect x="304" y="312" width="440" height="8" rx="2" fill="#e2e8f0"/>
</svg>
