<svg xmlns="http://www.w3.org/2000/svg" viewBox="0 0 880 480" fill="none" role="img" aria-labelledby="t1">
  <title id="t1">Ejemplo visual - inventario / repuestos</title>
  <rect width="880" height="480" rx="16" fill="#f8fafc"/>
  <rect x="24" y="24" width="832" height="48" rx="10" fill="#124c48"/>
  <rect x="24" y="84" width="832" height="372" rx="12" fill="#fff" stroke="#e2e8f0"/>
  <text x="48" y="118" fill="#334155" font-family="system-ui,sans-serif" font-size="14" font-weight="600">Gestion de repuestos</text>
  <g transform="translate(48 140)">
    <rect width="240" height="140" rx="10" fill="#f8fafc" stroke="#e2e8f0"/>
    <rect x="16" y="16" width="100" height="10" rx="2" fill="#64748b"/>
    <rect x="16" y="36" width="60" height="8" rx="2" fill="#94a3b8"/>
    <rect x="16" y="100" width="80" height="24" rx="6" fill="#fef3c7"/>
    <rect x="256" width="240" height="140" rx="10" fill="#f8fafc" stroke="#e2e8f0"/>
    <rect x="512" width="240" height="140" rx="10" fill="#f8fafc" stroke="#e2e8f0"/>
  </g>
  <rect x="48" y="300" width="784" height="140" rx="10" fill="#f1f5f9" stroke="#e2e8f0"/>
  <rect x="64" y="320" width="100" height="10" rx="2" fill="#cbd5e1"/>
  <rect x="64" y="344" width="720" height="12" rx="2" fill="#e2e8f0"/>
  <rect x="64" y="368" width="680" height="12" rx="2" fill="#e2e8f0"/>
</svg>
