<svg xmlns="http://www.w3.org/2000/svg" viewBox="0 0 880 480" fill="none" role="img" aria-labelledby="t1">
  <title id="t1">Ejemplo visual - informes</title>
  <rect width="880" height="480" rx="16" fill="#f8fafc"/>
  <rect x="24" y="24" width="832" height="48" rx="10" fill="#124c48"/>
  <rect x="24" y="84" width="832" height="372" rx="12" fill="#fff" stroke="#e2e8f0"/>
  <text x="48" y="118" fill="#334155" font-family="system-ui,sans-serif" font-size="14" font-weight="600">Informes</text>
  <rect x="48" y="140" width="380" height="200" rx="10" fill="#f8fafc" stroke="#e2e8f0"/>
  <g fill="#0d9488" opacity="0.85">
    <rect x="80" y="260" width="36" height="60" rx="4"/>
    <rect x="130" y="220" width="36" height="100" rx="4"/>
    <rect x="180" y="240" width="36" height="80" rx="4"/>
    <rect x="230" y="200" width="36" height="120" rx="4"/>
    <rect x="280" y="230" width="36" height="90" rx="4"/>
  </g>
  <rect x="448" y="140" width="384" height="200" rx="10" fill="#f1f5f9" stroke="#e2e8f0"/>
  <rect x="48" y="356" width="784" height="88" rx="10" fill="#fff" stroke="#e2e8f0"/>
  <rect x="64" y="376" width="200" height="10" rx="2" fill="#cbd5e1"/>
</svg>
