<svg xmlns="http://www.w3.org/2000/svg" viewBox="0 0 880 480" fill="none" role="img" aria-labelledby="t1">
  <title id="t1">Ejemplo visual - lista de tickets</title>
  <rect width="880" height="480" rx="16" fill="#f8fafc"/>
  <rect x="24" y="24" width="832" height="48" rx="10" fill="#124c48"/>
  <rect x="24" y="84" width="832" height="372" rx="12" fill="#fff" stroke="#e2e8f0"/>
  <text x="48" y="118" fill="#334155" font-family="system-ui,sans-serif" font-size="14" font-weight="600">Administrar tickets</text>
  <rect x="48" y="132" width="220" height="32" rx="8" fill="#f1f5f9" stroke="#cbd5e1"/>
  <rect x="680" y="132" width="120" height="32" rx="8" fill="#0d9488"/>
  <rect x="48" y="180" width="784" height="36" rx="6" fill="#f8fafc"/>
  <rect x="56" y="192" width="60" height="10" rx="2" fill="#94a3b8"/>
  <rect x="140" y="192" width="100" height="10" rx="2" fill="#cbd5e1"/>
  <rect x="400" y="192" width="140" height="10" rx="2" fill="#cbd5e1"/>
  <rect x="700" y="190" width="72" height="14" rx="4" fill="#ccfbf1"/>
  <rect x="48" y="224" width="784" height="36" rx="6" fill="#fff" stroke="#f1f5f9"/>
  <rect x="48" y="268" width="784" height="36" rx="6" fill="#fff" stroke="#f1f5f9"/>
  <rect x="48" y="312" width="784" height="36" rx="6" fill="#fff" stroke="#f1f5f9"/>
  <rect x="48" y="356" width="784" height="36" rx="6" fill="#fff" stroke="#f1f5f9"/>
</svg>
